<svg xmlns="http://www.w3.org/2000/svg" width="137" height="28"><g aria-label="BUKEE" font-weight="700" font-size="28" font-family="RobotoSlab,RobotoSlab-Bold" dominant-baseline="text-before-edge" fill="#fefefe" letter-spacing="1.12"><path d="M48.611 5.34q3.514 0 5.483 1.368 1.968 1.367 1.968 4.087 0 1.381-.738 2.475-.724 1.08-2.119 1.627 1.791.383 2.68 1.64.902 1.258.902 2.913 0 2.857-1.887 4.334-1.886 1.463-5.345 1.463h-9.79v-2.393l2.12-.41V8.157l-2.12-.41V5.34h2.12zm-2.734 11.102v5.742h3.678q1.586 0 2.42-.684.834-.697.834-2.05 0-1.463-.711-2.229-.711-.78-2.243-.78zm0-2.762h2.871q1.6 0 2.461-.656.861-.656.861-1.914 0-1.381-.875-2.037-.861-.657-2.584-.657h-2.734zM67.436 5.34v2.407l-2.132.41v10.39q0 1.97 1.052 2.953 1.067.971 2.912.971 1.873 0 2.94-.97 1.066-.971 1.066-2.954V8.157l-2.119-.41V5.34H79.4v2.407l-2.133.41v10.39q0 3.35-2.214 5.168-2.202 1.819-5.784 1.819-3.568 0-5.77-1.819-2.187-1.818-2.187-5.168V8.157l-2.119-.41V5.34h6.112zM81.709 22.854l2.119-.41V8.157l-2.12-.41V5.34h8.136v2.407l-2.024.41v5.318h1.736l3.829-5.564-1.176-.164V5.34h7.888v2.407l-2.16.369-4.894 6.535 5.496 7.861 1.996.342v2.393h-7.889v-2.393l1.23-.164-3.827-5.756H87.82v5.51l2.024.41v2.393h-8.135z"/><path d="M115.696 16.497h-6.74v5.687h6.425l.178-2.379h3.035v5.442h-15.75v-2.393l2.12-.41V8.157l-2.12-.41V5.34H118.567v5.455h-3.062l-.178-2.379h-6.371v5.004h6.74zM134.699 16.497h-6.74v5.687h6.425l.178-2.379h3.035v5.442h-15.75v-2.393l2.12-.41V8.157l-2.12-.41V5.34H137.57v5.455h-3.063l-.177-2.379h-6.371v5.004h6.74z" fill="#65e496"/></g><path fill="#65e496" d="M28 27.999l-28-28h28z"/><path fill="#44444f" d="M28 0L0 27.998v-28z"/></svg>