<?xml version="1.0" encoding="UTF-8" standalone="no"?>
<svg
   xmlns:dc="http://purl.org/dc/elements/1.1/"
   xmlns:cc="http://creativecommons.org/ns#"
   xmlns:rdf="http://www.w3.org/1999/02/22-rdf-syntax-ns#"
   xmlns:svg="http://www.w3.org/2000/svg"
   xmlns="http://www.w3.org/2000/svg"
   xmlns:sodipodi="http://sodipodi.sourceforge.net/DTD/sodipodi-0.dtd"
   xmlns:inkscape="http://www.inkscape.org/namespaces/inkscape"
   width="137"
   height="28"
   viewBox="0 0 137 28"
   version="1.1"
   id="svg26"
   sodipodi:docname="logo.svg"
   inkscape:version="0.92.4 (5da689c313, 2019-01-14)">
  <metadata
     id="metadata32">
    <rdf:RDF>
      <cc:Work
         rdf:about="">
        <dc:format>image/svg+xml</dc:format>
        <dc:type
           rdf:resource="http://purl.org/dc/dcmitype/StillImage" />
        <dc:title></dc:title>
      </cc:Work>
    </rdf:RDF>
  </metadata>
  <defs
     id="defs30" />
  <sodipodi:namedview
     pagecolor="#ffffff"
     bordercolor="#666666"
     borderopacity="1"
     objecttolerance="10"
     gridtolerance="10"
     guidetolerance="10"
     inkscape:pageopacity="0"
     inkscape:pageshadow="2"
     inkscape:window-width="1327"
     inkscape:window-height="696"
     id="namedview28"
     showgrid="false"
     inkscape:zoom="2.7664234"
     inkscape:cx="55.306069"
     inkscape:cy="14"
     inkscape:window-x="0"
     inkscape:window-y="0"
     inkscape:window-maximized="0"
     inkscape:current-layer="text6" />
  <g
     id="g24">
    <g
       id="g22">
      <g
         id="g10">
        <g
           id="g8">
          <g
             aria-label="BUKEE"
             transform="translate(39 3)"
             style="font-weight:700;font-size:28px;font-family:RobotoSlab, RobotoSlab-Bold;dominant-baseline:text-before-edge;fill:#fefefe"
             id="text6">
            <path
               d="m 9.6113281,2.3403244 q 3.5136719,0 5.4824219,1.3671875 1.96875,1.3671875 1.96875,4.0878906 0,1.3808594 -0.738281,2.4746095 -0.72461,1.080078 -2.119141,1.626953 1.791016,0.382813 2.679688,1.640625 0.902343,1.257813 0.902343,2.912109 0,2.857422 -1.886718,4.333985 -1.886719,1.46289 -5.345703,1.46289 H 0.765625 V 19.853996 L 2.8847656,19.44384 V 5.1567307 L 0.765625,4.7465744 v -2.40625 H 2.8847656 Z M 6.8769531,13.441887 v 5.742187 h 3.6777349 q 1.585937,0 2.419921,-0.683593 0.833985,-0.697266 0.833985,-2.050782 0,-1.46289 -0.710938,-2.228515 -0.710937,-0.779297 -2.242187,-0.779297 z m 0,-2.761719 h 2.8710938 q 1.5996091,0 2.4609371,-0.65625 0.861329,-0.6562498 0.861329,-1.9140623 0,-1.3808594 -0.875,-2.0371094 -0.861329,-0.65625 -2.5839849,-0.65625 h -2.734375 z"
               style="letter-spacing:1.12"
               id="path3737" />
            <path
               d="m 28.436407,2.3403244 v 2.40625 L 26.303595,5.1567307 V 15.547356 q 0,1.96875 1.052734,2.953125 1.066406,0.970703 2.912109,0.970703 1.873047,0 2.939453,-0.970703 1.066407,-0.970703 1.066407,-2.953125 V 5.1567307 L 32.155157,4.7465744 v -2.40625 h 8.244141 v 2.40625 L 38.266485,5.1567307 V 15.547356 q 0,3.349609 -2.214844,5.167968 -2.201171,1.81836 -5.783203,1.81836 -3.568359,0 -5.769531,-1.81836 -2.1875,-1.818359 -2.1875,-5.167968 V 5.1567307 L 20.192266,4.7465744 v -2.40625 h 2.119141 3.992188 z"
               style="letter-spacing:1.12"
               id="path3739" />
            <path
               d="m 42.708752,19.853996 2.11914,-0.410156 V 5.1567307 l -2.11914,-0.4101563 v -2.40625 h 8.134765 v 2.40625 L 48.82008,5.1567307 V 10.47509 h 1.736328 L 54.384533,4.9106369 53.208752,4.7465744 v -2.40625 h 7.888672 v 2.40625 l -2.160157,0.3691406 -4.894531,6.535156 5.496094,7.861328 1.996094,0.341797 v 2.392578 h -7.888672 v -2.392578 l 1.230468,-0.164062 -3.828125,-5.75586 H 48.82008 v 5.509766 l 2.023437,0.410156 v 2.392578 h -8.134765 z"
               style="letter-spacing:1.12"
               id="path3741" />
            <path
               d="m 76.695938,13.496574 h -6.740234 v 5.6875 h 6.425781 l 0.177734,-2.378906 h 3.035157 v 5.441406 h -15.75 v -2.392578 l 2.11914,-0.410156 V 5.1567307 l -2.11914,-0.4101563 v -2.40625 h 2.11914 13.603516 v 5.4550781 h -3.0625 L 76.326797,5.4164963 h -6.371093 v 5.0039067 h 6.740234 z"
               style="letter-spacing:1.12;fill:#65e496"
               id="path3743" />
            <path
               d="m 95.698753,13.496574 h -6.740234 v 5.6875 H 95.3843 l 0.177735,-2.378906 h 3.035156 v 5.441406 h -15.75 v -2.392578 l 2.11914,-0.410156 V 5.1567307 l -2.11914,-0.4101563 v -2.40625 h 2.11914 13.603516 v 5.4550781 h -3.0625 L 95.329613,5.4164963 h -6.371094 v 5.0039067 h 6.740234 z"
               style="letter-spacing:1.12;fill:#65e496"
               id="path3745" />
          </g>
        </g>
      </g>
      <g
         id="g20">
        <g
           id="g14">
          <path
             fill="#65e496"
             d="M28 27.999l-28-28h28z"
             id="path12" />
        </g>
        <g
           id="g18">
          <path
             fill="#44444f"
             d="M28 0L0 27.998v-28z"
             id="path16" />
        </g>
      </g>
    </g>
  </g>
</svg>
